<svg width="52" height="36" viewBox="0 0 713 462" fill="none" xmlns="http://www.w3.org/2000/svg">
<path fill-rule="evenodd" clip-rule="evenodd" d="M63.6723 461.579C23.6724 461.579 14.173 413.579 42.6723 393.579L538.173 38.579C558.173 23.0788 586.673 37.0791 590.672 46.5792L656.673 0V132.445L625.937 154.136L710.672 412.579C717.173 436.579 700.673 459.079 674.672 461.579H63.6723ZM637.672 122.579V36.5792L596.84 65.389L97.6724 417.579H219.672L619.74 135.235L637.672 122.579ZM252.672 417.579L354.672 345.579H608.732L636.672 417.579H252.672Z" fill="#FFEF00"/>
<path d="M17.6725 446.579C-2.82753 430.079 -9.32756 389.079 19.1726 368.579L519.672 7.57881C543.672 -6.92117 578.672 2.0788 590.172 28.5788C590.172 28.5788 561.672 5.07883 530.672 26.0788C499.672 47.0788 30.6724 386.579 30.6724 386.579C20.8391 394.245 4.47259 416.979 17.6725 446.579Z" fill="#FFEF00"/>
</svg>
